<svg width="50" height="57" viewBox="0 0 50 57" fill="none" xmlns="http://www.w3.org/2000/svg">
<g clip-path="url(#clip0_5_42)">
<path d="M50 39.9V2.85C50 1.06875 48.9286 0 47.1429 0H10.7143C4.64286 0 0 4.63125 0 10.6875V46.3125C0 52.3688 4.64286 57 10.7143 57H47.1429C48.5714 57 50 55.9312 50 54.15V52.3687C50 51.6562 49.6429 50.9438 48.9286 50.2313C48.5714 48.45 48.5714 43.4625 48.9286 42.0375C49.6429 41.6813 50 40.9687 50 39.9ZM33.6027 16.2339C33.6696 16.0992 33.7991 16.0312 33.9286 16.0312C34.058 16.0312 34.1875 16.0992 34.2545 16.2339L35.5022 18.7554L38.2924 19.1596C38.5904 19.203 38.7098 19.5681 38.4944 19.7786L36.4754 21.7413L36.952 24.5122C36.9922 24.7471 36.8058 24.9375 36.5938 24.9375C36.5379 24.9375 36.4799 24.9241 36.4241 24.8952L33.9286 23.5871L31.433 24.8952C31.3772 24.9241 31.3192 24.9375 31.2634 24.9375C31.0513 24.9375 30.865 24.7471 30.9051 24.5122L31.3817 21.7413L29.3627 19.7786C29.1462 19.5681 29.2656 19.203 29.5647 19.1596L32.3538 18.7554L33.6027 16.2339ZM27.1417 8.55111C28.6674 8.55111 30.1842 8.82832 31.6484 9.37605C31.7591 9.37613 31.8684 9.40045 31.9687 9.44728C32.0689 9.49412 32.1576 9.56233 32.2285 9.64711C32.2994 9.73188 32.3508 9.83115 32.379 9.93791C32.4073 10.0447 32.4117 10.1563 32.3919 10.2649C32.3721 10.3736 32.3287 10.4765 32.2647 10.5666C32.2007 10.6567 32.1176 10.7316 32.0214 10.7861C31.9251 10.8407 31.8181 10.8735 31.7077 10.8822C31.5974 10.8909 31.4865 10.8754 31.3828 10.8367C31.308 10.8367 31.0379 10.8133 30.9219 10.8133C25.0837 10.8133 20.3348 15.5503 20.3348 21.3739C20.3348 27.1963 25.0837 31.9345 30.9219 31.9345C31.0368 31.9345 31.3103 31.9111 31.3828 31.9111C31.8214 31.9111 32.1417 32.2607 32.1417 32.6659C32.1417 32.9977 31.9252 33.2793 31.6261 33.3806C30.1674 33.9228 28.6585 34.1978 27.1406 34.1978C20.0525 34.1989 14.2857 28.4454 14.2857 21.375C14.2857 14.3034 20.0525 8.55111 27.1417 8.55111ZM42.5 49.875H10.7143C8.57143 49.875 7.14286 48.45 7.14286 46.3125C7.14286 44.175 8.92857 42.75 10.7143 42.75H42.5V49.875Z" fill="white"/>
</g>
<defs>
<clipPath id="clip0_5_42">
<rect width="50" height="57" fill="white"/>
</clipPath>
</defs>
</svg>
